<svg xmlns="http://www.w3.org/2000/svg" viewBox="0 0 1200 520" width="1200" height="520" role="img" aria-label="开业季新客礼包活动主视觉"><defs><linearGradient id="ob" x1="0" y1="0" x2="1" y2="1"><stop offset="0" stop-color="#0B3B2E"/><stop offset="0.55" stop-color="#0F4C3A"/><stop offset="1" stop-color="#1E6349"/></linearGradient><radialGradient id="obg" cx="78%" cy="22%" r="55%"><stop offset="0" stop-color="#F3E2B0" stop-opacity="0.55"/><stop offset="1" stop-color="#F3E2B0" stop-opacity="0"/></radialGradient></defs><rect width="1200" height="520" fill="url(#ob)"/><rect width="1200" height="520" fill="url(#obg)"/><g opacity="0.5" stroke="#F3E2B0" stroke-width="3" fill="none"><circle cx="1020" cy="120" r="60"/><circle cx="900" cy="420" r="34"/><circle cx="1100" cy="360" r="22"/></g><g transform="translate(960,420) rotate(-16) scale(1.5)" opacity="0.28"><path d="M0 0 C26 -20 64 -16 80 6 C58 32 22 34 0 0 Z" fill="#8FC7A6"/><path d="M6 2 C28 6 54 6 76 6" fill="none" stroke="#F7F3EA" stroke-width="2.2" opacity="0.5"/></g><text x="300" y="190" text-anchor="middle" font-family="'Microsoft YaHei','PingFang SC','Hiragino Sans GB','Heiti SC','Noto Sans SC',sans-serif" font-size="84" font-weight="700" fill="#F7F3EA" letter-spacing="10">开业季</text><text x="300" y="268" text-anchor="middle" font-family="'Microsoft YaHei','PingFang SC','Hiragino Sans GB','Heiti SC','Noto Sans SC',sans-serif" font-size="36" font-weight="600" fill="#E5C765" letter-spacing="3">新客礼包 · 立减 20 元</text><text x="300" y="330" text-anchor="middle" font-family="'Microsoft YaHei','PingFang SC','Hiragino Sans GB','Heiti SC','Noto Sans SC',sans-serif" font-size="24" font-weight="500" fill="#F7F3EA" letter-spacing="1">季度会员直降 60 元 · 满减叠加</text><rect x="150" y="378" width="300" height="6" rx="3" fill="#C9A227"/><text x="300" y="440" text-anchor="middle" font-family="'Microsoft YaHei','PingFang SC','Hiragino Sans GB','Heiti SC','Noto Sans SC',sans-serif" font-size="22" font-weight="500" fill="#F3E2B0" letter-spacing="1">活动时间 2026.09.23 - 2026.10.31</text></svg>